<svg width="600" height="200" viewBox="0 0 600 200" fill="none" xmlns="http://www.w3.org/2000/svg">
<path d="M188.98 145.46C182.08 145.46 176.928 143.16 173.432 139.112V168.92H165.52V99H173.432V105.256C176.928 100.932 182.172 98.356 188.98 98.356C202.872 98.356 211.888 108.476 211.888 121.816C211.888 135.156 201.492 145.46 188.98 145.46ZM173.432 122.368C173.432 131.476 178.492 138.836 188.152 138.836C198.364 138.836 203.976 130.924 203.976 121.724C203.976 111.696 196.524 104.98 188.152 104.98C178.032 104.98 173.432 113.076 173.432 122.368ZM262.27 145.644C258.038 145.644 254.358 144.08 252.61 140.124C249.206 142.792 243.134 146.104 236.142 146.104C227.954 146.104 219.674 141.78 219.674 132.12C219.674 120.804 230.53 116.756 239.362 116.756C244.79 116.756 248.838 117.86 251.598 118.872V114.64C251.598 108.2 249.206 104.888 241.662 104.888C237.154 104.888 231.634 107.372 225.93 110.684L222.894 104.336C229.702 100.748 235.498 98.264 243.042 98.264C254.726 98.264 259.51 104.244 259.51 114.272V134.328C259.51 137.364 260.706 139.02 263.098 139.02C265.582 139.02 267.238 136.628 268.71 134.052L273.77 138.1C270.182 143.252 266.41 145.644 262.27 145.644ZM227.586 131.568C227.586 136.812 231.634 139.388 237.338 139.388C242.766 139.388 248.102 136.904 251.598 133.408V125.68C247.826 124.484 242.49 123.38 238.258 123.38C232.002 123.38 227.586 126.876 227.586 131.568ZM298.788 170.208C290.324 170.208 281.768 166.16 277.904 155.948L284.804 152.82C286.644 159.72 293.268 163.584 299.248 163.584C309.276 163.584 314.52 157.696 314.52 146.104V138.744C311.024 143.068 305.78 145.644 298.972 145.644C285.08 145.644 276.064 135.524 276.064 122.184C276.064 108.844 286.46 98.54 298.972 98.54C305.872 98.54 311.024 100.84 314.52 104.888V99H322.432V146.104C322.432 161.56 313.508 170.208 298.788 170.208ZM283.976 122.276C283.976 132.304 291.428 139.02 299.8 139.02C309.92 139.02 314.52 130.924 314.52 121.632C314.52 112.524 309.46 105.164 299.8 105.164C289.588 105.164 283.976 113.076 283.976 122.276ZM353.586 145.644C339.97 145.644 331.138 136.444 331.138 122.092C331.138 107.28 341.258 98.356 353.402 98.356C366.282 98.356 373.826 106.82 373.826 121.356V123.748H339.142C339.786 132.856 346.318 139.02 354.23 139.02C361.038 139.02 364.994 135.8 368.674 131.2L373.55 135.616C368.766 141.32 363.614 145.644 353.586 145.644ZM339.418 117.124H366.006C366.006 110.316 360.67 104.98 353.402 104.98C345.95 104.98 340.798 108.66 339.418 117.124ZM401.35 145.644C392.611 145.644 384.975 140.952 380.743 135.156L386.631 130.096C389.943 135.34 395.647 139.02 402.363 139.02C407.791 139.02 411.563 136.352 411.563 132.672C411.563 128.992 408.159 127.428 403.559 126.14L397.027 124.3C389.299 122.184 383.595 118.78 383.595 111.788C383.595 103.876 390.955 98.632 400.891 98.632C409.263 98.632 414.599 102.312 418.555 107.464L413.127 112.708C409.631 107.924 405.123 105.256 399.695 105.256C394.359 105.256 391.507 107.74 391.507 110.96C391.507 113.996 394.175 115.928 399.603 117.492L406.595 119.424C414.875 121.632 419.475 124.944 419.475 131.2C419.475 140.768 412.207 145.644 401.35 145.644ZM470.798 145.644C466.566 145.644 462.886 144.08 461.138 140.124C457.734 142.792 451.662 146.104 444.67 146.104C436.482 146.104 428.202 141.78 428.202 132.12C428.202 120.804 439.058 116.756 447.89 116.756C453.318 116.756 457.366 117.86 460.126 118.872V114.64C460.126 108.2 457.734 104.888 450.19 104.888C445.682 104.888 440.162 107.372 434.458 110.684L431.422 104.336C438.23 100.748 444.026 98.264 451.57 98.264C463.254 98.264 468.038 104.244 468.038 114.272V134.328C468.038 137.364 469.234 139.02 471.626 139.02C474.11 139.02 475.766 136.628 477.238 134.052L482.298 138.1C478.71 143.252 474.938 145.644 470.798 145.644ZM436.114 131.568C436.114 136.812 440.162 139.388 445.866 139.388C451.294 139.388 456.63 136.904 460.126 133.408V125.68C456.354 124.484 451.018 123.38 446.786 123.38C440.53 123.38 436.114 126.876 436.114 131.568ZM487.811 145V71.4H495.723V122.552L523.323 97.344L528.199 103.048L511.915 117.86L529.579 141.412L523.507 146.104L506.211 123.012L495.723 132.58V145H487.811ZM557.531 145.644C543.915 145.644 535.083 136.444 535.083 122.092C535.083 107.28 545.203 98.356 557.347 98.356C570.227 98.356 577.771 106.82 577.771 121.356V123.748H543.087C543.731 132.856 550.263 139.02 558.175 139.02C564.983 139.02 568.939 135.8 572.619 131.2L577.495 135.616C572.711 141.32 567.559 145.644 557.531 145.644ZM543.363 117.124H569.951C569.951 110.316 564.615 104.98 557.347 104.98C549.895 104.98 544.743 108.66 543.363 117.124Z" fill="#5DD7AB"/>
<circle cx="58.4704" cy="51.6267" r="21.1765" fill="#5DD7AB"/>
<path d="M80.9412 169.862C83.1503 169.862 84.9439 168.07 84.9152 165.862C84.6228 143.386 81.875 122.036 77.1881 106.06C72.2239 89.1382 65.491 85.1561 58.4706 85.1561C51.4502 85.1561 44.7173 89.1382 39.7531 106.06C35.0662 122.036 32.3184 143.386 32.026 165.862C31.9973 168.07 33.7909 169.862 36 169.862L58.4706 169.862H80.9412Z" fill="#5DD7AB"/>
<path d="M92.4999 55.3618C93.9332 44.3732 88.7375 35.6347 83.1321 30.2224C80.5978 27.7754 80.9522 22.6959 84.3303 21.6959C109.206 14.3324 123.598 23.766 129.941 29.5801C138.176 36.3448 152.176 55.8742 142.294 79.8742C133.196 101.968 107.025 104.435 90.5342 102.852C88.3073 102.638 86.8376 100.526 86.5876 98.303C85.5625 89.1845 77 80.9774 77 80.3619C77 79.4796 89.8529 75.6559 92.4999 55.3618Z" fill="#5DD7AB"/>
</svg>
